HIERARCHY
ROOT hip
{
  OFFSET 9.47605 86.7218 255.333
  CHANNELS 6 Xposition Yposition Zposition Zrotation Xrotation Yrotation
  JOINT abdomen
  {
    OFFSET 0 20.6881 -0.73152
    CHANNELS 3 Zrotation Xrotation Yrotation
    JOINT chest
    {
      OFFSET 0 11.7043 -0.48768
      CHANNELS 3 Zrotation Xrotation Yrotation
      JOINT neck
      {
        OFFSET 0 22.1894 -2.19456
        CHANNELS 3 Zrotation Xrotation Yrotation
        JOINT head
        {
          OFFSET -0.24384 7.07133 1.2192
          CHANNELS 3 Zrotation Xrotation Yrotation
          JOINT leftEye
          {
            OFFSET 4.14528 8.04674 8.04672
            CHANNELS 3 Zrotation Xrotation Yrotation
            End Site
            {
              OFFSET 1 0 0
            }
          }
          JOINT rightEye
          {
            OFFSET -3.6576 8.04674 8.04672
            CHANNELS 3 Zrotation Xrotation Yrotation
            End Site
            {
              OFFSET 1 0 0
            }
          }
        }
      }
      JOINT rCollar
      {
        OFFSET -2.68224 19.2634 -4.8768
        CHANNELS 3 Zrotation Xrotation Yrotation
        JOINT rShldr
        {
          OFFSET -8.77824 -1.95073 1.46304
          CHANNELS 3 Zrotation Xrotation Yrotation
          JOINT rForeArm
          {
            OFFSET -28.1742 -1.7115 0.48768
            CHANNELS 3 Zrotation Xrotation Yrotation
            JOINT rHand
            {
              OFFSET -22.5879 0.773209 7.07136
              CHANNELS 3 Zrotation Xrotation Yrotation
              JOINT rThumb1
              {
                OFFSET -1.2192 -0.487915 3.41376
                CHANNELS 3 Zrotation Xrotation Yrotation
                JOINT rThumb2
                {
                  OFFSET -3.37035 -0.52449 3.41376
                  CHANNELS 3 Zrotation Xrotation Yrotation
                  End Site
                  {
                    OFFSET -1.78271 -1.18214 1.43049
                  }
                }
              }
              JOINT rIndex1
              {
                OFFSET -7.75947 0.938293 5.60832
                CHANNELS 3 Zrotation Xrotation Yrotation
                JOINT rIndex2
                {
                  OFFSET -2.54057 -0.884171 1.56538
                  CHANNELS 3 Zrotation Xrotation Yrotation
                  End Site
                  {
                    OFFSET -1.62519 -0.234802 1.16502
                  }
                }
              }
              JOINT rMid1
              {
                OFFSET -8.24714 1.18213 3.41376
                CHANNELS 3 Zrotation Xrotation Yrotation
                JOINT rMid2
                {
                  OFFSET -3.10165 -0.590103 1.0647
                  CHANNELS 3 Zrotation Xrotation Yrotation
                  End Site
                  {
                    OFFSET -2.48547 -0.328903 0.83742
                  }
                }
              }
              JOINT rRing1
              {
                OFFSET -8.82822 0.546677 1.51678
                CHANNELS 3 Zrotation Xrotation Yrotation
                JOINT rRing2
                {
                  OFFSET -2.60934 -0.819778 -0.0198488
                  CHANNELS 3 Zrotation Xrotation Yrotation
                  End Site
                  {
                    OFFSET -2.33842 -0.294052 0.168128
                  }
                }
              }
              JOINT rPinky1
              {
                OFFSET -8.27202 -0.0477905 -0.4584
                CHANNELS 3 Zrotation Xrotation Yrotation
                JOINT rPinky2
                {
                  OFFSET -1.82734 -0.647385 -0.700984
                  CHANNELS 3 Zrotation Xrotation Yrotation
                  End Site
                  {
                    OFFSET -1.69225 -0.51767 -0.607171
                  }
                }
              }
            }
          }
        }
      }
      JOINT lCollar
      {
        OFFSET 2.68224 19.2634 -4.8768
        CHANNELS 3 Zrotation Xrotation Yrotation
        JOINT lShldr
        {
          OFFSET 8.77824 -1.95073 1.46304
          CHANNELS 3 Zrotation Xrotation Yrotation
          JOINT lForeArm
          {
            OFFSET 28.1742 -1.7115 0.48768
            CHANNELS 3 Zrotation Xrotation Yrotation
            JOINT lHand
            {
              OFFSET 22.5879 0.773209 7.07136
              CHANNELS 3 Zrotation Xrotation Yrotation
              JOINT lThumb1
              {
                OFFSET 1.2192 -0.487915 3.41376
                CHANNELS 3 Zrotation Xrotation Yrotation
                JOINT lThumb2
                {
                  OFFSET 3.37035 -0.52449 3.41376
                  CHANNELS 3 Zrotation Xrotation Yrotation
                  End Site
                  {
                    OFFSET 1.78271 -1.18214 1.43049
                  }
                }
              }
              JOINT lIndex1
              {
                OFFSET 7.75947 0.938293 5.60832
                CHANNELS 3 Zrotation Xrotation Yrotation
                JOINT lIndex2
                {
                  OFFSET 2.54057 -0.884171 1.56538
                  CHANNELS 3 Zrotation Xrotation Yrotation
                  End Site
                  {
                    OFFSET 1.62519 -0.234802 1.16502
                  }
                }
              }
              JOINT lMid1
              {
                OFFSET 8.24714 1.18213 3.41376
                CHANNELS 3 Zrotation Xrotation Yrotation
                JOINT lMid2
                {
                  OFFSET 3.10165 -0.590103 1.0647
                  CHANNELS 3 Zrotation Xrotation Yrotation
                  End Site
                  {
                    OFFSET 2.48547 -0.328903 0.83742
                  }
                }
              }
              JOINT lRing1
              {
                OFFSET 8.82822 0.546677 1.51678
                CHANNELS 3 Zrotation Xrotation Yrotation
                JOINT lRing2
                {
                  OFFSET 2.60934 -0.819778 -0.0198488
                  CHANNELS 3 Zrotation Xrotation Yrotation
                  End Site
                  {
                    OFFSET 2.33842 -0.294052 0.168128
                  }
                }
              }
              JOINT lPinky1
              {
                OFFSET 8.27202 -0.0477905 -0.4584
                CHANNELS 3 Zrotation Xrotation Yrotation
                JOINT lPinky2
                {
                  OFFSET 1.82734 -0.647385 -0.700984
                  CHANNELS 3 Zrotation Xrotation Yrotation
                  End Site
                  {
                    OFFSET 1.69225 -0.51767 -0.607171
                  }
                }
              }
            }
          }
        }
      }
    }
  }
  JOINT rButtock
  {
    OFFSET -8.77824 4.35084 1.2192
    CHANNELS 3 Zrotation Xrotation Yrotation
    JOINT rThigh
    {
      OFFSET 0 -1.70687 -2.19456
      CHANNELS 3 Zrotation Xrotation Yrotation
      JOINT rShin
      {
        OFFSET 0 -36.8199 0.73152
        CHANNELS 3 Zrotation Xrotation Yrotation
        JOINT rFoot
        {
          OFFSET 0.73152 -45.1104 -5.12064
          CHANNELS 3 Zrotation Xrotation Yrotation
          End Site
          {
            OFFSET -1.1221 -3.69964 12.103
          }
        }
      }
    }
  }
  JOINT lButtock
  {
    OFFSET 8.77824 4.35084 1.2192
    CHANNELS 3 Zrotation Xrotation Yrotation
    JOINT lThigh
    {
      OFFSET 0 -1.70687 -2.19456
      CHANNELS 3 Zrotation Xrotation Yrotation
      JOINT lShin
      {
        OFFSET 0 -36.8199 0.73152
        CHANNELS 3 Zrotation Xrotation Yrotation
        JOINT lFoot
        {
          OFFSET -0.73152 -45.1104 -5.12064
          CHANNELS 3 Zrotation Xrotation Yrotation
          End Site
          {
            OFFSET 1.1221 -3.69964 12.103
          }
        }
      }
    }
  }
}
MOTION
Frames:	7
Frame Time:	0.00833333
17.1755 78.3113 38.9421 1.2905 1.18947 23.5924 -8.26299 7.46553 -5.84187 1.83369 -6.57337 -1.80739 3.58016 2.7542 0.352507 -0.891509 20.367 0.456815 -0 0 0 -0 0 0 5.21709e-014 -2.78229e-014 -5.07398e-014 77.4308 24.4083 -0.471445 -14.789 -7.609 27.1554 -0.0692824 -7.48887 -1.05859 -1.86274e-010 3.96889e-010 -2.40466e-010 -3.1978e-010 6.84055e-010 -4.16959e-010 -1.86249e-010 3.96878e-010 -2.40459e-010 7.73091 5.47488 0.417314 -1.86258e-010 3.96879e-010 -2.40453e-010 2.90554 0.965183 0.102902 -1.86254e-010 3.96877e-010 -2.40448e-010 10.2786 0.731801 0.0259123 -1.86282e-010 3.96887e-010 -2.40444e-010 2.22167 -0.733487 -0.20892 5.2294e-014 -2.78353e-014 -5.09883e-014 -75.935 35.4509 -11.2802 13.2065 -6.33162 -23.9708 0.451856 -18.7562 2.73543 -1.835e-010 -3.92041e-010 3.68509e-010 -3.21428e-010 -6.85273e-010 6.36157e-010 -1.83502e-010 -3.92034e-010 3.68515e-010 -7.73091 5.47488 -0.417314 -1.83498e-010 -3.9204e-010 3.68505e-010 -2.90554 0.965183 -0.102902 -1.83501e-010 -3.9204e-010 3.68505e-010 -10.2786 0.731801 -0.0259123 -1.83493e-010 -3.92038e-010 3.68499e-010 -2.22167 -0.733487 0.20892 -2.03217e-016 0 -3.88251e-019 5.87231 -43.0215 18.4361 -1.01015 60.1375 1.78283 3.58769 -15.7421 8.81134 2.03217e-016 0 3.88251e-019 4.1134 -1.34371 -23.4455 -0.035601 28.6556 -0.962466 -2.56511 -12.1724 -12.7051 
17.2269 78.2807 39.428 1.3038 1.27135 23.7468 -8.34631 7.45396 -5.84467 1.85142 -6.59574 -1.80749 3.55845 2.75248 0.347731 -0.940754 20.5382 0.470058 -0 0 0 -0 0 0 4.68435e-014 -1.69184e-014 -3.85949e-014 77.4753 24.4752 -0.444498 -14.7939 -7.61275 27.1652 -0.0695251 -7.50196 -1.06046 -3.18897e-010 5.98737e-010 -8.7118e-011 -5.50639e-010 1.03537e-009 -1.51491e-010 -3.18876e-010 5.98727e-010 -8.71137e-011 7.73091 5.47488 0.417314 -3.18884e-010 5.98729e-010 -8.71065e-011 2.90554 0.965183 0.102902 -3.1888e-010 5.98726e-010 -8.71012e-011 10.2786 0.731801 0.0259123 -3.18905e-010 5.98735e-010 -8.70962e-011 2.22167 -0.733487 -0.20892 4.69417e-014 -1.6928e-014 -3.88418e-014 -75.9709 35.2592 -11.2429 13.1054 -6.25429 -23.7717 0.440628 -18.5292 2.69991 -2.5528e-010 -4.03692e-010 3.01756e-010 -4.44048e-010 -7.02395e-010 5.18961e-010 -2.55284e-010 -4.03686e-010 3.01764e-010 -7.73091 5.47488 -0.417314 -2.55278e-010 -4.03692e-010 3.01755e-010 -2.90554 0.965183 -0.102902 -2.55282e-010 -4.03691e-010 3.01753e-010 -10.2786 0.731801 -0.0259123 -2.55274e-010 -4.0369e-010 3.01747e-010 -2.22167 -0.733487 0.20892 -2.03217e-016 0 -3.88251e-019 5.63978 -43.246 18.2745 -1.01153 60.1862 1.79358 3.55911 -15.647 8.7518 2.03217e-016 0 3.88251e-019 4.18288 -1.06076 -23.5526 -0.0390066 28.5346 -0.968936 -2.53676 -12.1763 -12.618 
17.2749 78.2488 39.8993 1.31475 1.3645 23.912 -8.42813 7.44457 -5.84766 1.86853 -6.6164 -1.80713 3.53113 2.74856 0.342129 -0.972637 20.7123 0.480425 -0 0 0 -0 0 0 3.15151e-014 4.65424e-015 -2.27143e-014 77.5233 24.5199 -0.423438 -14.7996 -7.61689 27.1762 -0.0700835 -7.53188 -1.06474 -4.44573e-010 8.05407e-010 1.12455e-010 -7.70162e-010 1.39579e-009 1.94216e-010 -4.44558e-010 8.054e-010 1.12454e-010 7.73091 5.47488 0.417314 -4.44564e-010 8.05401e-010 1.12463e-010 2.90554 0.965183 0.102902 -4.44559e-010 8.054e-010 1.12467e-010 10.2786 0.731801 0.0259123 -4.44579e-010 8.05406e-010 1.12473e-010 2.22167 -0.733487 -0.20892 3.15452e-014 4.65222e-015 -2.29814e-014 -75.9882 35.1072 -11.2138 13.0254 -6.19386 -23.6135 0.431868 -18.3527 2.6723 -2.96828e-010 -3.3558e-010 2.18152e-010 -5.14159e-010 -5.81091e-010 3.72679e-010 -2.96835e-010 -3.35578e-010 2.18163e-010 -7.73091 5.47488 -0.417314 -2.96827e-010 -3.35581e-010 2.18154e-010 -2.90554 0.965183 -0.102902 -2.96832e-010 -3.35581e-010 2.18151e-010 -10.2786 0.731801 -0.0259123 -2.96824e-010 -3.3558e-010 2.18143e-010 -2.22167 -0.733487 0.20892 -2.03217e-016 0 -3.88251e-019 5.39476 -43.4813 18.1068 -1.01288 60.2296 1.80359 3.53464 -15.5479 8.70317 2.03217e-016 0 3.88251e-019 4.2357 -0.833124 -23.6417 -0.0408981 28.4735 -0.975859 -2.50912 -12.1765 -12.5247 
17.3198 78.2159 40.3578 1.32028 1.45646 24.0743 -8.49731 7.44378 -5.84392 1.88133 -6.63229 -1.80488 3.50511 2.74879 0.337211 -1.00122 20.8691 0.491457 -0 0 0 -0 0 0 1.34329e-014 2.75281e-014 -6.53388e-015 77.5674 24.5574 -0.398663 -14.804 -7.62011 27.1849 -0.0707406 -7.56681 -1.06973 -5.54881e-010 9.93638e-010 3.06698e-010 -9.63165e-010 1.72435e-009 5.30725e-010 -5.54874e-010 9.93634e-010 3.0669e-010 7.73091 5.47488 0.417314 -5.54877e-010 9.93635e-010 3.06702e-010 2.90554 0.965183 0.102902 -5.54872e-010 9.93635e-010 3.06705e-010 10.2786 0.731801 0.0259123 -5.54885e-010 9.93638e-010 3.06712e-010 2.22167 -0.733487 -0.20892 1.33892e-014 2.7534e-014 -6.82429e-015 -75.9836 34.995 -11.1989 12.9632 -6.14737 -23.4904 0.425169 -18.2177 2.65121 -3.21009e-010 -2.60658e-010 1.60951e-010 -5.54735e-010 -4.48876e-010 2.72344e-010 -3.21018e-010 -2.60659e-010 1.60965e-010 -7.73091 5.47488 -0.417314 -3.21008e-010 -2.60659e-010 1.60955e-010 -2.90554 0.965183 -0.102902 -3.21014e-010 -2.60659e-010 1.6095e-010 -10.2786 0.731801 -0.0259123 -3.21006e-010 -2.60659e-010 1.60941e-010 -2.22167 -0.733487 0.20892 -2.03217e-016 0 -3.88251e-019 5.15363 -43.7084 17.9418 -1.01384 60.2637 1.81206 3.51817 -15.4475 8.67544 2.03217e-016 0 3.88251e-019 4.28422 -0.643341 -23.6887 -0.0415254 28.4651 -0.983213 -2.48117 -12.1648 -12.4299 
17.3619 78.182 40.8049 1.31752 1.53484 24.2199 -8.54269 7.45801 -5.82654 1.88612 -6.64035 -1.79932 3.4873 2.75955 0.334488 -1.0406 20.9887 0.506699 -0 0 0 -0 0 0 -1.56101e-016 4.23361e-014 6.5102e-015 77.6003 24.603 -0.360543 -14.8054 -7.6211 27.1877 -0.0712728 -7.59491 -1.07375 -6.41402e-010 1.14017e-009 4.44056e-010 -1.11447e-009 1.98006e-009 7.686e-010 -6.414e-010 1.14017e-009 4.44044e-010 7.73091 5.47488 0.417314 -6.41401e-010 1.14017e-009 4.44056e-010 2.90554 0.965183 0.102902 -6.41396e-010 1.14017e-009 4.44059e-010 10.2786 0.731801 0.0259123 -6.41405e-010 1.14017e-009 4.44066e-010 2.22167 -0.733487 -0.20892 -2.41538e-016 4.23462e-014 6.21202e-015 -75.9539 34.9228 -11.204 12.9156 -6.11177 -23.3965 0.42019 -18.1157 2.6353 -3.40687e-010 -2.51876e-010 1.73404e-010 -5.88748e-010 -4.33262e-010 2.9299e-010 -3.40697e-010 -2.51879e-010 1.7342e-010 -7.73091 5.47488 -0.417314 -3.40686e-010 -2.51877e-010 1.7341e-010 -2.90554 0.965183 -0.102902 -3.40693e-010 -2.51877e-010 1.73404e-010 -10.2786 0.731801 -0.0259123 -3.40685e-010 -2.51878e-010 1.73394e-010 -2.22167 -0.733487 0.20892 -2.03217e-016 0 -3.88251e-019 4.93323 -43.9084 17.7888 -1.01401 60.2843 1.81822 3.51355 -15.3487 8.67856 2.03217e-016 0 3.88251e-019 4.34071 -0.473911 -23.6699 -0.0411393 28.5023 -0.990973 -2.45195 -12.1333 -12.338 
17.3997 78.1476 41.2408 1.30429 1.59769 24.3504 -8.56072 7.48968 -5.7949 1.88083 -6.63854 -1.79046 3.48115 2.78462 0.334281 -1.09385 21.0559 0.526444 -0 0 0 -0 0 0 -7.68065e-015 4.60606e-014 1.93466e-014 77.6251 24.653 -0.309309 -14.8047 -7.6207 27.1863 -0.0716838 -7.61659 -1.07686 -7.50221e-010 1.30368e-009 5.2657e-010 -1.30382e-009 2.26464e-009 9.11119e-010 -7.50222e-010 1.30368e-009 5.26556e-010 7.73091 5.47488 0.417314 -7.50223e-010 1.30368e-009 5.26567e-010 2.90554 0.965183 0.102902 -7.50218e-010 1.30368e-009 5.26569e-010 10.2786 0.731801 0.0259123 -7.50225e-010 1.30368e-009 5.26578e-010 2.22167 -0.733487 -0.20892 -7.75289e-015 4.60688e-014 1.90639e-014 -75.8909 34.9028 -11.2328 12.8861 -6.08974 -23.3388 0.417323 -18.0555 2.62594 -3.95818e-010 -4.21821e-010 3.33459e-010 -6.86488e-010 -7.30901e-010 5.69123e-010 -3.95826e-010 -4.21822e-010 3.33474e-010 -7.73091 5.47488 -0.417314 -3.95817e-010 -4.21821e-010 3.33466e-010 -2.90554 0.965183 -0.102902 -3.95823e-010 -4.21821e-010 3.33459e-010 -10.2786 0.731801 -0.0259123 -3.95816e-010 -4.21821e-010 3.3345e-010 -2.22167 -0.733487 0.20892 -2.03217e-016 0 -3.88251e-019 4.73975 -44.0787 17.6554 -1.01301 60.2878 1.82157 3.521 -15.2533 8.71204 2.03217e-016 0 3.88251e-019 4.40862 -0.332163 -23.5734 -0.0393887 28.5985 -0.999364 -2.42034 -12.0721 -12.2498 
17.4359 78.1131 41.6677 1.28278 1.65123 24.4714 -8.55758 7.53514 -5.75228 1.86777 -6.6289 -1.77892 3.48245 2.8199 0.335813 -1.15365 21.0845 0.549004 -0 0 0 -0 0 0 -1.28855e-014 4.38707e-014 3.25261e-014 77.644 24.7017 -0.249145 -14.8023 -7.61921 27.1818 -0.0720709 -7.63697 -1.07977 -8.69719e-010 1.47495e-009 5.76472e-010 -1.51138e-009 2.56241e-009 9.96938e-010 -8.69721e-010 1.47495e-009 5.76458e-010 7.73091 5.47488 0.417314 -8.69722e-010 1.47495e-009 5.76466e-010 2.90554 0.965183 0.102902 -8.69716e-010 1.47495e-009 5.76468e-010 10.2786 0.731801 0.0259123 -8.69723e-010 1.47495e-009 5.76479e-010 2.22167 -0.733487 -0.20892 -1.29139e-014 4.38736e-014 3.22714e-014 -75.7987 34.9309 -11.2814 12.8752 -6.08185 -23.3176 0.416481 -18.0381 2.62324 -4.67366e-010 -7.0054e-010 5.95911e-010 -8.14315e-010 -1.21957e-009 1.02256e-009 -4.67369e-010 -7.00539e-010 5.95924e-010 -7.73091 5.47488 -0.417314 -4.67365e-010 -7.00539e-010 5.95917e-010 -2.90554 0.965183 -0.102902 -4.67368e-010 -7.0054e-010 5.95911e-010 -10.2786 0.731801 -0.0259123 -4.67362e-010 -7.00539e-010 5.95903e-010 -2.22167 -0.733487 0.20892 -2.03217e-016 0 -3.88251e-019 4.56425 -44.2287 17.5353 -1.01112 60.2771 1.82263 3.5385 -15.1594 8.77155 2.03217e-016 0 3.88251e-019 4.4806 -0.223093 -23.4134 -0.0362282 28.7524 -1.00835 -2.38731 -11.9881 -12.163 
